<?xml version="1.0" encoding="UTF-8" standalone="no"?>
<!-- Created with Inkscape (http://www.inkscape.org/) -->
<svg xmlns:dc="http://purl.org/dc/elements/1.1/" xmlns:cc="http://creativecommons.org/ns#" xmlns:rdf="http://www.w3.org/1999/02/22-rdf-syntax-ns#" xmlns:svg="http://www.w3.org/2000/svg" xmlns="http://www.w3.org/2000/svg" xmlns:xlink="http://www.w3.org/1999/xlink" xmlns:sodipodi="http://sodipodi.sourceforge.net/DTD/sodipodi-0.dtd" xmlns:inkscape="http://www.inkscape.org/namespaces/inkscape" width="250" height="165" id="svg2414" sodipodi:version="0.32" inkscape:version="0.46" version="1.0" sodipodi:docname="Ring.svg" inkscape:output_extension="org.inkscape.output.svg.inkscape" inkscape:export-filename="/home/frederik/Bilder/Clipart/Ring_thumbnail.png" inkscape:export-xdpi="36" inkscape:export-ydpi="36">
  <defs id="defs2416">
    <filter inkscape:collect="always" id="filter3258" x="-0.092564434" width="1.1851289" y="-0.17055006" height="1.3411001">
      <feGaussianBlur inkscape:collect="always" stdDeviation="8.9841801" id="feGaussianBlur3260"/>
    </filter>
    <linearGradient id="linearGradient2414">
      <stop style="stop-color:#f4e86c;stop-opacity:1;" offset="0" id="stop2416"/>
      <stop id="stop2424" offset="0.66028047" style="stop-color:#f4e86c;stop-opacity:1;"/>
      <stop id="stop2422" offset="0.83673471" style="stop-color:#d8b436;stop-opacity:1;"/>
      <stop style="stop-color:#bc8000;stop-opacity:1;" offset="1" id="stop2418"/>
    </linearGradient>
    <radialGradient inkscape:collect="always" xlink:href="#linearGradient2414" id="radialGradient2420" cx="260.4259" cy="619.104" fx="260.4259" fy="619.104" r="113.96875" gradientTransform="matrix(-7.214104e-8,0.7041724,-1.2242583,-1.2542279e-7,1198.8003,112.87342)" gradientUnits="userSpaceOnUse"/>
    <linearGradient id="linearGradient2396">
      <stop style="stop-color:#f0e464;stop-opacity:1;" offset="0" id="stop2398"/>
      <stop style="stop-color:#d4a41c;stop-opacity:1;" offset="1" id="stop2400"/>
    </linearGradient>
    <radialGradient inkscape:collect="always" xlink:href="#linearGradient2396" id="radialGradient2402" cx="248.68613" cy="509.16125" fx="248.68613" fy="509.16125" r="96.875" gradientTransform="matrix(1.6435868,1.3104632e-6,-4.4900502e-8,0.6589712,36.119923,-92.319452)" gradientUnits="userSpaceOnUse"/>
    <linearGradient id="linearGradient2406">
      <stop style="stop-color:#fcfc80;stop-opacity:1;" offset="0" id="stop2408"/>
      <stop style="stop-color:#ecd450;stop-opacity:1;" offset="1" id="stop2410"/>
    </linearGradient>
    <linearGradient inkscape:collect="always" xlink:href="#linearGradient2406" id="linearGradient2412" x1="247.37132" y1="240.20554" x2="247.37132" y2="324.88162" gradientUnits="userSpaceOnUse"/>
    <inkscape:perspective sodipodi:type="inkscape:persp3d" inkscape:vp_x="0 : 526.18109 : 1" inkscape:vp_y="0 : 1000 : 0" inkscape:vp_z="744.09448 : 526.18109 : 1" inkscape:persp3d-origin="372.04724 : 350.78739 : 1" id="perspective2422"/>
  </defs>
  <sodipodi:namedview id="base" pagecolor="#ffffff" bordercolor="#666666" borderopacity="1.0" inkscape:pageopacity="0.0" inkscape:pageshadow="2" inkscape:zoom="2.2557964" inkscape:cx="110.53161" inkscape:cy="81.214996" inkscape:document-units="px" inkscape:current-layer="layer1" showgrid="false" inkscape:window-width="1279" inkscape:window-height="725" inkscape:window-x="0" inkscape:window-y="25"/>
  <g inkscape:label="Ebene 1" inkscape:groupmode="layer" id="layer1" transform="translate(-328.88839,-230.57754)">
    <path d="M 364.27922,288.65399 A 113.9704,60.713203 0 1 1 136.33842,288.65399 A 113.9704,60.713203 0 1 1 364.27922,288.65399 z" sodipodi:ry="60.713203" sodipodi:rx="113.9704" sodipodi:cy="288.65399" sodipodi:cx="250.30882" id="path3232" style="opacity:1;fill:none;fill-opacity:1;fill-rule:evenodd;stroke:#000000;stroke-width:5;stroke-linecap:butt;stroke-linejoin:miter;marker:none;marker-start:none;marker-mid:none;stroke-miterlimit:4;stroke-dasharray:none;stroke-dashoffset:0;stroke-opacity:1;visibility:visible;display:inline;overflow:visible;filter:url(#filter3258);enable-background:accumulate" sodipodi:type="arc" transform="matrix(0.9311017,0,0,0.9038492,217.1631,60.935268)" inkscape:export-filename="/home/frederik/Bilder/Clipart/Ring.png" inkscape:export-xdpi="90" inkscape:export-ydpi="90"/>
    <path id="path2390" d="M 414.95089,237.26174 C 366.55602,244.27552 330.88839,267.80098 330.88839,295.79299 L 330.88839,315.79299 C 330.88839,349.30668 381.94548,376.51175 444.85714,376.51174 C 507.7688,376.51174 558.82587,349.30668 558.82589,315.79299 L 558.82589,295.79299 C 558.82589,267.78329 523.11123,244.25898 474.66964,237.26174 C 477.3371,237.72565 479.9839,238.21114 482.54464,238.79299 C 485.44184,239.45129 488.26813,240.17946 491.01339,240.98049 C 493.75865,241.78152 496.43634,242.67047 499.01339,243.60549 C 501.59044,244.54051 504.05832,245.54521 506.45089,246.60549 C 508.84346,247.66577 511.16532,248.77243 513.35714,249.94924 C 515.54896,251.12605 517.63235,252.35215 519.60714,253.63674 C 521.58193,254.92133 523.42814,256.2531 525.16964,257.63674 C 526.91114,259.02038 528.55271,260.47529 530.04464,261.94924 C 531.53657,263.42319 532.88105,264.92496 534.10714,266.48049 C 535.33323,268.03602 536.41317,269.63337 537.35714,271.26174 C 538.30111,272.89011 539.1178,274.56927 539.76339,276.26174 C 540.40898,277.95421 540.90121,279.67015 541.23214,281.41799 C 541.56307,283.16583 541.73214,284.93602 541.73214,286.73049 C 541.73214,288.52496 541.56307,290.29515 541.23214,292.04299 C 540.90121,293.79083 540.40898,295.50677 539.76339,297.19924 C 539.1178,298.89171 538.30111,300.57087 537.35714,302.19924 C 536.41317,303.82761 535.33323,305.39371 534.10714,306.94924 C 533.54306,307.66489 532.85342,308.34411 532.23214,309.04299 C 522.36418,326.61336 486.99482,339.63674 444.85714,339.63674 C 402.71946,339.63673 367.3501,326.61336 357.48214,309.04299 C 356.86086,308.34411 356.17122,307.66489 355.60714,306.94924 C 354.38105,305.39371 353.26986,303.82761 352.32589,302.19924 C 351.38192,300.57087 350.59648,298.89171 349.95089,297.19924 C 349.3053,295.50677 348.81307,293.79083 348.48214,292.04299 C 348.15121,290.29515 347.98214,288.52496 347.98214,286.73049 C 347.98214,284.93602 348.15121,283.16583 348.48214,281.41799 C 348.81307,279.67015 349.3053,277.95421 349.95089,276.26174 C 350.59648,274.56927 351.38192,272.89011 352.32589,271.26174 C 353.26986,269.63337 354.38105,268.03602 355.60714,266.48049 C 356.83323,264.92496 358.17771,263.42319 359.66964,261.94924 C 361.16157,260.47529 362.80314,259.02038 364.54464,257.63674 C 366.28614,256.2531 368.13235,254.92133 370.10714,253.63674 C 372.08193,252.35215 374.16532,251.12605 376.35714,249.94924 C 378.54896,248.77243 380.83957,247.66577 383.23214,246.60549 C 385.62471,245.54521 388.12384,244.54051 390.70089,243.60549 C 393.27794,242.67047 395.95563,241.78152 398.70089,240.98049 C 401.44615,240.17946 404.27244,239.45129 407.16964,238.79299 C 409.7096,238.21587 412.30589,237.72286 414.95089,237.26174 z" style="opacity:1;fill:url(#radialGradient2420);fill-opacity:1;fill-rule:evenodd;stroke:none;stroke-width:5;stroke-linecap:butt;stroke-linejoin:miter;marker:none;marker-start:none;marker-mid:none;stroke-miterlimit:4;stroke-dasharray:none;stroke-dashoffset:0;stroke-opacity:1;visibility:visible;display:inline;overflow:visible;enable-background:accumulate" inkscape:export-filename="/home/frederik/Bilder/Clipart/Ring.png" inkscape:export-xdpi="90" inkscape:export-ydpi="90"/>
    <path id="path2392" d="M 414.95089,237.26174 C 412.30589,237.72286 409.7096,238.21587 407.16964,238.79299 C 404.27244,239.45129 401.44615,240.17946 398.70089,240.98049 C 395.95563,241.78152 393.27794,242.67047 390.70089,243.60549 C 388.12384,244.54051 385.62471,245.54521 383.23214,246.60549 C 380.83957,247.66577 378.54896,248.77243 376.35714,249.94924 C 374.16532,251.12605 372.08193,252.35215 370.10714,253.63674 C 368.13235,254.92133 366.28614,256.2531 364.54464,257.63674 C 362.80314,259.02038 361.16157,260.47529 359.66964,261.94924 C 358.17771,263.42319 356.83323,264.92496 355.60714,266.48049 C 354.38105,268.03602 353.26986,269.63337 352.32589,271.26174 C 351.38192,272.89011 350.59648,274.56927 349.95089,276.26174 C 349.3053,277.95421 348.81307,279.67015 348.48214,281.41799 C 348.15121,283.16583 347.98214,284.93602 347.98214,286.73049 C 347.98214,288.52496 348.15121,290.29515 348.48214,292.04299 C 348.81307,293.79083 349.3053,295.50677 349.95089,297.19924 C 350.59648,298.89171 351.38192,300.57087 352.32589,302.19924 C 353.26986,303.82761 354.38105,305.39371 355.60714,306.94924 C 356.17122,307.66489 356.86086,308.34411 357.48214,309.04299 C 356.87915,307.96934 356.32757,306.89882 355.91964,305.79299 C 363.00331,286.59012 400.1446,271.94924 444.85714,271.94924 C 489.56969,271.94925 526.71097,286.59013 533.79464,305.79299 C 533.38671,306.89882 532.83513,307.96934 532.23214,309.04299 C 532.85342,308.34411 533.54306,307.66489 534.10714,306.94924 C 535.33323,305.39371 536.41317,303.82761 537.35714,302.19924 C 538.30111,300.57087 539.1178,298.89171 539.76339,297.19924 C 540.40898,295.50677 540.90121,293.79083 541.23214,292.04299 C 541.56307,290.29515 541.73214,288.52496 541.73214,286.73049 C 541.73214,284.93602 541.56307,283.16583 541.23214,281.41799 C 540.90121,279.67015 540.40898,277.95421 539.76339,276.26174 C 539.1178,274.56927 538.30111,272.89011 537.35714,271.26174 C 536.41317,269.63337 535.33323,268.03602 534.10714,266.48049 C 532.88105,264.92496 531.53657,263.42319 530.04464,261.94924 C 528.55271,260.47529 526.91114,259.02038 525.16964,257.63674 C 523.42814,256.2531 521.58193,254.92133 519.60714,253.63674 C 517.63235,252.35215 515.54896,251.12605 513.35714,249.94924 C 511.16532,248.77243 508.84346,247.66577 506.45089,246.60549 C 504.05832,245.54521 501.59044,244.54051 499.01339,243.60549 C 496.43634,242.67047 493.75865,241.78152 491.01339,240.98049 C 488.26813,240.17946 485.44184,239.45129 482.54464,238.79299 C 479.9839,238.21114 477.3371,237.72565 474.66964,237.26174 C 465.15071,235.88676 455.1892,235.07424 444.85714,235.07424 C 434.49188,235.07424 424.49722,235.87821 414.95089,237.26174 z" style="opacity:1;fill:url(#radialGradient2402);fill-opacity:1;fill-rule:evenodd;stroke:none;stroke-width:5;stroke-linecap:butt;stroke-linejoin:miter;marker:none;marker-start:none;marker-mid:none;stroke-miterlimit:4;stroke-dasharray:none;stroke-dashoffset:0;stroke-opacity:1;visibility:visible;display:inline;overflow:visible;enable-background:accumulate" inkscape:export-filename="/home/frederik/Bilder/Clipart/Ring.png" inkscape:export-xdpi="90" inkscape:export-ydpi="90"/>
    <path transform="matrix(0.8500103,0,0,0.8567088,232.08839,39.432048)" sodipodi:type="arc" style="opacity:1;fill:none;fill-opacity:1;fill-rule:evenodd;stroke:url(#linearGradient2412);stroke-width:5;stroke-linecap:butt;stroke-linejoin:miter;marker:none;marker-start:none;marker-mid:none;stroke-miterlimit:4;stroke-dasharray:none;stroke-dashoffset:0;stroke-opacity:1;visibility:visible;display:inline;overflow:visible;enable-background:accumulate" id="path2394" sodipodi:cx="250.30882" sodipodi:cy="288.65399" sodipodi:rx="113.9704" sodipodi:ry="60.713203" d="M 364.27922,288.65399 A 113.9704,60.713203 0 1 1 136.33842,288.65399 A 113.9704,60.713203 0 1 1 364.27922,288.65399 z" inkscape:export-filename="/home/frederik/Bilder/Clipart/Ring.png" inkscape:export-xdpi="90" inkscape:export-ydpi="90"/>
  </g>
  <metadata>
    <rdf:RDF>
      <cc:Work>
        <dc:format>image/svg+xml</dc:format>
        <dc:type rdf:resource="http://purl.org/dc/dcmitype/StillImage"/>
        <cc:license rdf:resource="http://creativecommons.org/licenses/publicdomain/"/>
        <dc:publisher>
          <cc:Agent rdf:about="http://openclipart.org/">
            <dc:title>Open Clip Art Library</dc:title>
          </cc:Agent>
        </dc:publisher>
        <dc:title>Wedding Ring</dc:title>
        <dc:date>2009-01-01T14:49:59</dc:date>
        <dc:description>A simple golden wedding ring</dc:description>
        <dc:source>http://openclipart.org/detail/20950/wedding-ring-by-freedo</dc:source>
        <dc:creator>
          <cc:Agent>
            <dc:title>freedo</dc:title>
          </cc:Agent>
        </dc:creator>
        <dc:subject>
          <rdf:Bag>
            <rdf:li>clip art</rdf:li>
            <rdf:li>clipart</rdf:li>
            <rdf:li>color</rdf:li>
            <rdf:li>color</rdf:li>
            <rdf:li>gold</rdf:li>
            <rdf:li>gold</rdf:li>
            <rdf:li>image</rdf:li>
            <rdf:li>media</rdf:li>
            <rdf:li>png</rdf:li>
            <rdf:li>public domain</rdf:li>
            <rdf:li>ring</rdf:li>
            <rdf:li>ring</rdf:li>
            <rdf:li>svg</rdf:li>
            <rdf:li>wedding</rdf:li>
            <rdf:li>wedding</rdf:li>
          </rdf:Bag>
        </dc:subject>
      </cc:Work>
      <cc:License rdf:about="http://creativecommons.org/licenses/publicdomain/">
        <cc:permits rdf:resource="http://creativecommons.org/ns#Reproduction"/>
        <cc:permits rdf:resource="http://creativecommons.org/ns#Distribution"/>
        <cc:permits rdf:resource="http://creativecommons.org/ns#DerivativeWorks"/>
      </cc:License>
    </rdf:RDF>
  </metadata>
</svg>
