/* XPM */
static char * logo_xpm[] = {
"32 32 656 2",
"  	c None",
". 	c #D0D0D0",
"+ 	c #CFCFCF",
"@ 	c #CECECE",
"# 	c #D1D1D1",
"$ 	c #D2D2D2",
"% 	c #D3D3D3",
"& 	c #CDCDCD",
"* 	c #CCCCCC",
"= 	c #668BAC",
"- 	c #3E719E",
"; 	c #44758D",
"> 	c #46768A",
", 	c #4274A0",
"' 	c #4374AA",
") 	c #4878AE",
"! 	c #4979AC",
"~ 	c #5183B7",
"{ 	c #5386BB",
"] 	c #507FB5",
"^ 	c #5681B9",
"/ 	c #5682B8",
"( 	c #5683B6",
"_ 	c #567BA7",
": 	c #587595",
"< 	c #4B6077",
"[ 	c #3F4D5E",
"} 	c #384451",
"| 	c #2F353B",
"1 	c #2C2F32",
"2 	c #1F2124",
"3 	c #95979A",
"4 	c #C2CDDB",
"5 	c #517FB3",
"6 	c #5281B4",
"7 	c #5580B3",
"8 	c #5481B3",
"9 	c #638BB8",
"0 	c #5F88B4",
"a 	c #3973AD",
"b 	c #49794F",
"c 	c #4D7738",
"d 	c #4C7B60",
"e 	c #568479",
"f 	c #497EA5",
"g 	c #437BBF",
"h 	c #437DBF",
"i 	c #4680C0",
"j 	c #94B6DB",
"k 	c #88919A",
"l 	c #20252A",
"m 	c #27292B",
"n 	c #252526",
"o 	c #212121",
"p 	c #1F1F1F",
"q 	c #202020",
"r 	c #0F0F0F",
"s 	c #706F72",
"t 	c #EFEFF4",
"u 	c #537FB1",
"v 	c #4A7FB9",
"w 	c #4C80BC",
"x 	c #4F81BE",
"y 	c #5C88C0",
"z 	c #658CBC",
"A 	c #437A9B",
"B 	c #4F7A57",
"C 	c #476A32",
"D 	c #3C5524",
"E 	c #4B682A",
"F 	c #436A45",
"G 	c #4C80A6",
"H 	c #4D84C0",
"I 	c #4A7EC1",
"J 	c #EBF2F7",
"K 	c #9C9C9C",
"L 	c #151515",
"M 	c #232323",
"N 	c #1E1E1E",
"O 	c #010101",
"P 	c #444445",
"Q 	c #F6F4FA",
"R 	c #5E82A9",
"S 	c #4A7AB2",
"T 	c #4E7CB6",
"U 	c #507FBA",
"V 	c #5F8ABE",
"W 	c #678DC3",
"X 	c #4C7F7A",
"Y 	c #587E46",
"Z 	c #4A7558",
"` 	c #3A4A2F",
" .	c #33452B",
"..	c #2D4024",
"+.	c #2D3E2C",
"@.	c #567770",
"#.	c #5281C3",
"$.	c #DDE5F0",
"%.	c #B8B7B9",
"&.	c #1A1A1A",
"*.	c #222222",
"=.	c #060505",
"-.	c #000000",
";.	c #323232",
">.	c #F0EFF3",
",.	c #617C9D",
"'.	c #4974A9",
").	c #4F79B1",
"!.	c #537FB8",
"~.	c #638AC0",
"{.	c #CBCBCB",
"].	c #698DC4",
"^.	c #47789E",
"/.	c #406A64",
"(.	c #436757",
"_.	c #405B32",
":.	c #435C37",
"<.	c #283725",
"[.	c #2A3732",
"}.	c #3F5644",
"|.	c #567FA0",
"1.	c #C5D5E9",
"2.	c #C8C7CA",
"3.	c #212020",
"4.	c #222324",
"5.	c #080808",
"6.	c #000204",
"7.	c #000102",
"8.	c #232324",
"9.	c #ECEBF0",
"0.	c #667B95",
"a.	c #496FA0",
"b.	c #5077AC",
"c.	c #567DB5",
"d.	c #6788BD",
"e.	c #6C8EC2",
"f.	c #4676C0",
"g.	c #4879C2",
"h.	c #4674AB",
"i.	c #385648",
"j.	c #4B663A",
"k.	c #2F4429",
"l.	c #455D5B",
"m.	c #5A7470",
"n.	c #51769B",
"o.	c #B4C6DF",
"p.	c #D2D0D4",
"q.	c #252525",
"r.	c #1F1E1D",
"s.	c #22282E",
"t.	c #212325",
"u.	c #21201F",
"v.	c #232C37",
"w.	c #0C0E11",
"x.	c #010E1D",
"y.	c #000207",
"z.	c #151413",
"A.	c #E2E3E5",
"B.	c #8692A5",
"C.	c #4D6D9B",
"D.	c #5476AA",
"E.	c #5B7EB5",
"F.	c #6B8CBF",
"G.	c #CACACA",
"H.	c #6E90C2",
"I.	c #4B79BD",
"J.	c #4C7ABE",
"K.	c #547FC4",
"L.	c #597792",
"M.	c #425E4D",
"N.	c #466B67",
"O.	c #4C5C4A",
"P.	c #4B6370",
"Q.	c #5C80B9",
"R.	c #A6BAD8",
"S.	c #D9D7DB",
"T.	c #292929",
"U.	c #222326",
"V.	c #212222",
"W.	c #242323",
"X.	c #111213",
"Y.	c #040404",
"Z.	c #CECFD0",
"`.	c #9FA5B1",
" +	c #4F6C99",
".+	c #5777A8",
"++	c #5E82B5",
"@+	c #6F90BD",
"#+	c #7592C4",
"$+	c #547BBE",
"%+	c #557CC0",
"&+	c #5D7EAF",
"*+	c #597697",
"=+	c #476067",
"-+	c #3A5044",
";+	c #30413A",
">+	c #26392B",
",+	c #52708D",
"'+	c #A4B3D4",
")+	c #E6E5E9",
"!+	c #373738",
"~+	c #1C1C1C",
"{+	c #212120",
"]+	c #232222",
"^+	c #010100",
"/+	c #AAABAC",
"(+	c #C3C7CC",
"_+	c #516F97",
":+	c #597AA6",
"<+	c #6386B5",
"[+	c #7594BF",
"}+	c #C8C8C8",
"|+	c #7C93C4",
"1+	c #5B7DBE",
"2+	c #5F7FC0",
"3+	c #6482C5",
"4+	c #68828F",
"5+	c #718355",
"6+	c #4D5D3E",
"7+	c #586768",
"8+	c #6D785E",
"9+	c #5A6E6E",
"0+	c #93A5C8",
"a+	c #EDECF1",
"b+	c #49494A",
"c+	c #191919",
"d+	c #070706",
"e+	c #838484",
"f+	c #D9DCDD",
"g+	c #597498",
"h+	c #6B84AA",
"i+	c #6D8AB8",
"j+	c #7692BF",
"k+	c #8295C7",
"l+	c #6882C1",
"m+	c #6A83C5",
"n+	c #6F86C9",
"o+	c #7C8FAB",
"p+	c #6F7E6C",
"q+	c #6F7A64",
"r+	c #5C6858",
"s+	c #718291",
"t+	c #5C696A",
"u+	c #929F8E",
"v+	c #F7F6FB",
"w+	c #6A6A6A",
"x+	c #161616",
"y+	c #141311",
"z+	c #000001",
"A+	c #000408",
"B+	c #00050A",
"C+	c #676867",
"D+	c #E4E6E6",
"E+	c #7F8AA4",
"F+	c #8292B1",
"G+	c #94A5C5",
"H+	c #9DAFCC",
"I+	c #A2ADD2",
"J+	c #7389C9",
"K+	c #7589BF",
"L+	c #808EA1",
"M+	c #7A8FD1",
"N+	c #7E95CC",
"O+	c #7D8571",
"P+	c #7A7E6B",
"Q+	c #A5B1CA",
"R+	c #BFCAE6",
"S+	c #8C9379",
"T+	c #F3F2F7",
"U+	c #878688",
"V+	c #151412",
"W+	c #201D1A",
"X+	c #05192E",
"Y+	c #001C3B",
"Z+	c #031C36",
"`+	c #041D39",
" @	c #002042",
".@	c #011D3C",
"+@	c #535453",
"@@	c #E6E8E7",
"#@	c #8C93A7",
"$@	c #98A2B7",
"%@	c #B7BCCD",
"&@	c #B1B8CE",
"*@	c #C7C7C7",
"=@	c #B7BED6",
"-@	c #7D94D0",
";@	c #798EB5",
">@	c #636B4B",
",@	c #788BB1",
"'@	c #99ABDE",
")@	c #87929B",
"!@	c #666C4B",
"~@	c #A6ABB0",
"{@	c #C2C7D2",
"]@	c #525846",
"^@	c #E4E5E4",
"/@	c #9B9C9A",
"(@	c #173048",
"_@	c #16202B",
":@	c #001D3E",
"<@	c #02274F",
"[@	c #03203F",
"}@	c #021E3C",
"|@	c #011832",
"1@	c #011934",
"2@	c #011E3E",
"3@	c #002451",
"4@	c #435E7C",
"5@	c #E6E4E0",
"6@	c #838AA1",
"7@	c #9499B2",
"8@	c #98A1C0",
"9@	c #A2AAC7",
"0@	c #C6C6C6",
"a@	c #A5B3CF",
"b@	c #879CCE",
"c@	c #95A6D2",
"d@	c #7E8369",
"e@	c #606856",
"f@	c #ACB5D8",
"g@	c #B6B8CA",
"h@	c #8D8E75",
"i@	c #4F5A52",
"j@	c #52594B",
"k@	c #525852",
"l@	c #E2E5E7",
"m@	c #B1B5B7",
"n@	c #193757",
"o@	c #082E56",
"p@	c #002751",
"q@	c #001833",
"r@	c #000F22",
"s@	c #000917",
"t@	c #000C1A",
"u@	c #000D1A",
"v@	c #000A16",
"w@	c #3E4449",
"x@	c #9495A2",
"y@	c #9296AE",
"z@	c #959EBD",
"A@	c #AAB0C8",
"B@	c #C4C4C4",
"C@	c #A6A9BB",
"D@	c #8891B8",
"E@	c #8390BF",
"F@	c #8F95B2",
"G@	c #727351",
"H@	c #838470",
"I@	c #AFB2A3",
"J@	c #74785E",
"K@	c #353B2C",
"L@	c #434A32",
"M@	c #7E827B",
"N@	c #E2E4E5",
"O@	c #D7D9D9",
"P@	c #242627",
"Q@	c #070B09",
"R@	c #070705",
"S@	c #5F5E5E",
"T@	c #828392",
"U@	c #787B98",
"V@	c #8186A7",
"W@	c #9A9BB5",
"X@	c #C2C2C2",
"Y@	c #9E9EAB",
"Z@	c #7E84A8",
"`@	c #888DAE",
" #	c #9C96AE",
".#	c #9C959D",
"+#	c #837F51",
"@#	c #BEBBA1",
"##	c #787959",
"$#	c #313826",
"%#	c #6F695E",
"&#	c #9E8D99",
"*#	c #B8B9C2",
"=#	c #EBEDEC",
"-#	c #5C5D5C",
";#	c #444545",
">#	c #ABABAB",
",#	c #B48581",
"'#	c #C7B9B8",
")#	c #B6B7B7",
"!#	c #4A4A4A",
"~#	c #101010",
"{#	c #B4B4B7",
"]#	c #D4D5D8",
"^#	c #888590",
"/#	c #80758E",
"(#	c #90849E",
"_#	c #A193A9",
":#	c #C0C0C0",
"<#	c #A0A0A0",
"[#	c #7D8387",
"}#	c #798293",
"|#	c #9D9EA6",
"1#	c #A8A1A5",
"2#	c #C3BDB6",
"3#	c #DCD9C3",
"4#	c #6F704F",
"5#	c #393F2B",
"6#	c #81746C",
"7#	c #BEA29C",
"8#	c #A3A0A8",
"9#	c #E1E3E2",
"0#	c #D2D4D3",
"a#	c #373737",
"b#	c #898989",
"c#	c #FBFBFC",
"d#	c #F6F4F4",
"e#	c #B0645E",
"f#	c #D9C9C7",
"g#	c #FFFFFF",
"h#	c #F2F2F2",
"i#	c #C3C3C4",
"j#	c #CCCCD1",
"k#	c #C6C7CB",
"l#	c #8C888F",
"m#	c #877787",
"n#	c #8E8095",
"o#	c #9B8EA4",
"p#	c #8C8D73",
"q#	c #586042",
"r#	c #374436",
"s#	c #697058",
"t#	c #939373",
"u#	c #D5CFBB",
"v#	c #B3B399",
"w#	c #4A4D2F",
"x#	c #353E30",
"y#	c #887C56",
"z#	c #A08E5D",
"A#	c #A79E81",
"B#	c #DCDEDD",
"C#	c #DEE0E0",
"D#	c #D7D7D9",
"E#	c #DEDEDF",
"F#	c #DDDDDE",
"G#	c #D9DADA",
"H#	c #CDD5D6",
"I#	c #D1D3D3",
"J#	c #D9D9DA",
"K#	c #E6E6E7",
"L#	c #D5D5D8",
"M#	c #C5C6CA",
"N#	c #8D8A8F",
"O#	c #857C86",
"P#	c #887B90",
"Q#	c #A395A0",
"R#	c #BFBFBF",
"S#	c #6B7161",
"T#	c #454E39",
"U#	c #52573F",
"V#	c #666C54",
"W#	c #6F745A",
"X#	c #7C7F5E",
"Y#	c #737659",
"Z#	c #77775D",
"`#	c #8E8D71",
" $	c #948B61",
".$	c #777146",
"+$	c #878268",
"@$	c #D4D5D6",
"#$	c #CFD0D2",
"$$	c #CDCDCF",
"%$	c #CACBCD",
"&$	c #C6C7C9",
"*$	c #C3C3C5",
"=$	c #C9C9CA",
"-$	c #C9C9C9",
";$	c #C2C2C4",
">$	c #C5C6C8",
",$	c #B1B1B2",
"'$	c #B8B8BA",
")$	c #CCCDD0",
"!$	c #929295",
"~$	c #898182",
"{$	c #847F8D",
"]$	c #9D96A1",
"^$	c #BEBEBE",
"/$	c #B6B4A2",
"($	c #AAAA90",
"_$	c #A2A17F",
":$	c #A09B76",
"<$	c #94916F",
"[$	c #A5A083",
"}$	c #D0C7A5",
"|$	c #D8CAA1",
"1$	c #DDCCA2",
"2$	c #CEBD8E",
"3$	c #C0B07C",
"4$	c #B9AF86",
"5$	c #CACBCF",
"6$	c #C3C4C7",
"7$	c #AFB0B2",
"8$	c #9E9EA0",
"9$	c #ACADAF",
"0$	c #E2E2E3",
"a$	c #E3E3E3",
"b$	c #AFB0B1",
"c$	c #A6A6A8",
"d$	c #B8B9BB",
"e$	c #C6C6C9",
"f$	c #9E9FA2",
"g$	c #77757D",
"h$	c #83818A",
"i$	c #94929B",
"j$	c #BDBDBD",
"k$	c #E2DBC1",
"l$	c #F4EFD8",
"m$	c #E5DFC8",
"n$	c #C9C09B",
"o$	c #D3C79F",
"p$	c #DFCFA5",
"q$	c #D6C79D",
"r$	c #CEC096",
"s$	c #CCBC93",
"t$	c #BEB183",
"u$	c #BAAE83",
"v$	c #AFA887",
"w$	c #B6B7BA",
"x$	c #B0B1B3",
"y$	c #A8A9AB",
"z$	c #B7B8BA",
"A$	c #B9BABC",
"B$	c #B9B9BB",
"C$	c #B5B6B8",
"D$	c #C0C1C3",
"E$	c #BBBCBE",
"F$	c #ADAEB1",
"G$	c #676573",
"H$	c #6C6C80",
"I$	c #848391",
"J$	c #BBBBBB",
"K$	c #EFEDE4",
"L$	c #F3F1D9",
"M$	c #F4F2E6",
"N$	c #ECE7D6",
"O$	c #EFEBDC",
"P$	c #E8E4D0",
"Q$	c #CDC29C",
"R$	c #C8B78A",
"S$	c #C5B890",
"T$	c #C8BB93",
"U$	c #BBAB80",
"V$	c #ADA27E",
"W$	c #C5C5C8",
"X$	c #BBBCBF",
"Y$	c #BCBDBF",
"Z$	c #B3B4B6",
"`$	c #BABBBD",
" %	c #ABABAD",
".%	c #A9A9AB",
"+%	c #BABABD",
"@%	c #5D5D6E",
"#%	c #706F7A",
"$%	c #89898A",
"%%	c #BCBCBC",
"&%	c #DEDAC7",
"*%	c #CEC5A3",
"=%	c #E7E4D1",
"-%	c #EEEBDD",
";%	c #EDEDE9",
">%	c #F8F8F8",
",%	c #E8E6DB",
"'%	c #DED6C1",
")%	c #DBD1B6",
"!%	c #C8BFA6",
"~%	c #968F65",
"{%	c #7B713F",
"]%	c #C1C1BF",
"^%	c #C1C2C5",
"/%	c #B1B2B4",
"(%	c #A5A5A8",
"_%	c #CBCCCE",
":%	c #AEB0B2",
"<%	c #9E9FA0",
"[%	c #919192",
"}%	c #5D5E66",
"|%	c #7A7575",
"1%	c #8B8683",
"2%	c #B9B9B9",
"3%	c #CFCFBF",
"4%	c #B9BBA8",
"5%	c #CFCDC0",
"6%	c #CECDBF",
"7%	c #C5C7C0",
"8%	c #D4D4CC",
"9%	c #D6D4C8",
"0%	c #E6E4E2",
"a%	c #D8D4CD",
"b%	c #C7C8BC",
"c%	c #757E5F",
"d%	c #505B3B",
"e%	c #ACADA7",
"f%	c #C6C7CC",
"g%	c #BDBEC1",
"h%	c #8D8D8E",
"i%	c #ABACAE",
"j%	c #B7B7B9",
"k%	c #BFBFC1",
"l%	c #DADBDD",
"m%	c #9D9D9F",
"n%	c #4F555D",
"o%	c #616469",
"p%	c #767579",
"q%	c #BABABA",
"r%	c #E0E0E0",
"s%	c #DEDEDE",
"t%	c #DDDDDD",
"u%	c #DBDBDB",
"v%	c #DADADA",
"w%	c #D7D7D7",
"x%	c #D6D6D6",
"y%	c #C7C7C9",
"z%	c #CCCDD1",
"A%	c #C4C5C7",
"B%	c #C7C8CA",
"C%	c #B1B1B3",
"D%	c #B8B9BA",
"E%	c #D5D6D9",
"F%	c #E1E2E3",
"G%	c #828384",
"H%	c #7C7C7C",
"I%	c #8C8C8C",
"J%	c #A4A4A4",
"K%	c #C4C5C6",
"L%	c #D4D5D7",
"M%	c #D5D6D8",
"N%	c #BABABC",
"O%	c #BFC0C3",
"P%	c #DDDEDF",
"Q%	c #E6E8E8",
"R%	c #B8B8B9",
"S%	c #BABBBC",
"T%	c #DEDFE1",
"U%	c #DBDCDF",
"V%	c #DEE0E1",
"W%	c #E0E2E2",
"X%	c #E3E5E4",
"Y%	c #C3C5C4",
"Z%	c #323233",
"`%	c #969696",
" &	c #DDDFDE",
".&	c #DEE1DF",
"+&	c #AAABAB",
"@&	c #2B2A2C",
"#&	c #3A3A39",
"$&	c #424141",
"%&	c #767676",
"&&	c #7E7F7E",
"*&	c #808181",
"=&	c #7F807F",
"-&	c #7D7E7D",
";&	c #656666",
"  . + + + + + + . @ @ + . . # # # $ $ % # & & * * * * * * * *   ",
"  = - ; > , ' ) ! ~ { ] ^ / ( _ : < [ } | 1 2 3 4 5 6 7 8 9 *   ",
"  0 a b c d e f g h i j k l m n o p q p q o r s t u v w x y *   ",
"  z A B C D E F G H I J K L q q q o o o M N O P Q R S T U V &   ",
"  W X Y Z `  ...+.@.#.$.%.&.q o o o o *.p =.-.;.>.,.'.).!.~.{.  ",
"  ].^./.(._.:.<.[.}.|.1.2.p q 3.o o 4.o 5.6.7.8.9.0.a.b.c.d.{.  ",
"  e.f.g.h.i.j.k.l.m.n.o.p.q.r.s.t.u.v.w.-.x.y.z.A.B.C.D.E.F.G.  ",
"  H.I.J.K.L.M.N.O.P.Q.R.S.T.N U.V.W.X.-.-.-.-.Y.Z.`. +.+++@+G.  ",
"  #+$+%+&+*+=+-+;+>+,+'+)+!+~+{+]+&.^+-.-.-.-.-./+(+_+:+<+[+}+  ",
"  |+1+2+3+4+5+6+7+8+9+0+a+b+c+o *.d+-.-.-.-.-.-.e+f+g+h+i+j+}+  ",
"  k+l+m+n+o+p+q+r+s+t+u+v+w+x+M y+-.-.z+A+B+-.-.C+D+E+F+G+H+}+  ",
"  I+J+K+L+M+N+O+P+Q+R+S+T+U+V+W+X+Y+Z+`+ @.@-.-.+@@@#@$@%@&@*@  ",
"  =@-@;@>@,@'@)@!@~@{@]@^@/@(@_@:@<@[@}@|@1@2@3@4@5@6@7@8@9@0@  ",
"  a@b@c@d@e@f@g@h@i@j@k@l@m@n@o@p@}@q@r@s@t@u@v@w@^@x@y@z@A@B@  ",
"  C@D@E@F@G@H@I@J@K@L@M@N@O@P@z+-.-.-.Q@R@-.-.-.S@N@T@U@V@W@X@  ",
"  Y@Z@`@ #.#+#@###$#%#&#*#=#-#-.-.;#>#,#'#)#!#~#{#]#^#/#(#_#:#  ",
"  <#[#}#|#1#2#3#4#5#6#7#8#9#0#a#b#c#d#e#f#g#h#i#j#k#l#m#n#o#:#  ",
"  p#q#r#s#t#u#v#w#x#y#z#A#B#C#D#E#F#G#H#I#J#D#K#L#M#N#O#P#Q#R#  ",
"  S#T#U#V#W#X#Y#Z#`# $.$+$@$#$$$%$&$*$=$-$;$>$,$'$)$!$~${$]$^$  ",
"  /$($_$:$<$[$}$|$1$2$3$4$5$6$7$8$9$&$0$a$=$b$c$d$e$f$g$h$i$j$  ",
"  k$l$m$n$o$p$q$r$s$t$u$v$k#w$x$9$y$z$A$B$C$z$D$E$D$F$G$H$I$J$  ",
"  K$L$M$N$O$P$Q$R$S$T$U$V$W$X$d$Y$E$Z$`$`$Z$y$ %.%E$+%@%#%$%%%  ",
"  &%*%=%-%;%>%,%'%)%!%~%{%]%^%d$/%(%7$>$_%C$:%<%[%_%X$}%|%1%2%  ",
"  3%4%5%6%7%8%9%0%a%b%c%d%e%f%g%h%x$E$E$i%j%g%A$k%l%m%n%o%p%q%  ",
"  r%r%s%s%t%u%v%w%x%% $ {.y%z%)$A%A%B$B%C%D%.%B$E%F%G%H%I%<#J%  ",
"                            K%L%M%#$N%/%O%D%>$P%Q%R%            ",
"                              S%T%U%V%P%l%W%X%@@Y%Z%            ",
"                                `%@$B#B# &.& &+&@&              ",
"                                          #&$&                  ",
"                                      %&&&*&=&-&;&              ",
"                                                                ",
"                                                                "};
