/* XPM */
static char * logo_xpm[] = {
"32 32 457 2",
"  	c None",
". 	c #9DC1D3",
"+ 	c #8BBED7",
"@ 	c #7FBCDB",
"# 	c #98C0D4",
"$ 	c #99C0D4",
"% 	c #87BDD8",
"& 	c #79BBDC",
"* 	c #66B7E0",
"= 	c #5BB8E8",
"- 	c #58BAEB",
"; 	c #2DB0F4",
"> 	c #2F96CD",
", 	c #268DC8",
"' 	c #38AAEC",
") 	c #95BFD5",
"! 	c #84BCD9",
"~ 	c #76BADD",
"{ 	c #5FB6E2",
"] 	c #36AFEC",
"^ 	c #14A9F5",
"/ 	c #0CA1F0",
"( 	c #00A1FA",
"_ 	c #38AEF2",
": 	c #4AB1EF",
"< 	c #25A5F5",
"[ 	c #048ED6",
"} 	c #1A7D64",
"| 	c #4D595A",
"1 	c #4D4E53",
"2 	c #3E7197",
"3 	c #86BDD9",
"4 	c #0DA6F7",
"5 	c #00A2FA",
"6 	c #009FFA",
"7 	c #009DFA",
"8 	c #009BFA",
"9 	c #0099FA",
"0 	c #2993D5",
"a 	c #D0593A",
"b 	c #A17E65",
"c 	c #54A3B0",
"d 	c #018EFA",
"e 	c #018CFA",
"f 	c #1A7C47",
"g 	c #4D6547",
"h 	c #655B5B",
"i 	c #7E7979",
"j 	c #4D5460",
"k 	c #89A8B7",
"l 	c #7AB5DB",
"m 	c #0195FA",
"n 	c #0193FA",
"o 	c #0191FA",
"p 	c #018FFA",
"q 	c #018DFA",
"r 	c #0D8BEF",
"s 	c #C96340",
"t 	c #D44C37",
"u 	c #CC633E",
"v 	c #3F84C0",
"w 	c #0181FA",
"x 	c #3C6758",
"y 	c #5C5653",
"z 	c #6F6868",
"A 	c #544949",
"B 	c #535959",
"C 	c #77A2C1",
"D 	c #8AB8D7",
"E 	c #0188FA",
"F 	c #0186FA",
"G 	c #0185FA",
"H 	c #0183FA",
"I 	c #B56E53",
"J 	c #BF4A32",
"K 	c #B75930",
"L 	c #B26832",
"M 	c #AB743B",
"N 	c #B29134",
"O 	c #266D8C",
"P 	c #515348",
"Q 	c #625555",
"R 	c #655A5A",
"S 	c #575553",
"T 	c #726B6B",
"U 	c #58565C",
"V 	c #9EC1D2",
"W 	c #0580FA",
"X 	c #027CFA",
"Y 	c #027BFA",
"Z 	c #027AFA",
"` 	c #257DD3",
" .	c #B49D2F",
"..	c #AEB591",
"+.	c #BCB963",
"@.	c #B7B76E",
"#.	c #B3BC9C",
"$.	c #C7BD3A",
"%.	c #515A63",
"&.	c #5F5353",
"*.	c #585E5E",
"=.	c #3994C1",
"-.	c #555F6A",
";.	c #716A6A",
">.	c #5F5656",
",.	c #5A5656",
"'.	c #1A83F4",
").	c #0275FA",
"!.	c #0274FA",
"~.	c #0273FA",
"{.	c #0774F5",
"].	c #CCC33A",
"^.	c #B6B358",
"/.	c #BCB542",
"(.	c #979850",
"_.	c #B4B254",
":.	c #727060",
"<.	c #605555",
"[.	c #837E7E",
"}.	c #525155",
"|.	c #2882D0",
"1.	c #0E9CEE",
"2.	c #587082",
"3.	c #686161",
"4.	c #6F6767",
"5.	c #585252",
"6.	c #328AEE",
"7.	c #0370FB",
"8.	c #036FFB",
"9.	c #036EFB",
"0.	c #93924C",
"a.	c #99884C",
"b.	c #9E903D",
"c.	c #6C675A",
"d.	c #73725D",
"e.	c #615756",
"f.	c #716969",
"g.	c #51494E",
"h.	c #426EA1",
"i.	c #0184FA",
"j.	c #009CFA",
"k.	c #5387A3",
"l.	c #5D5758",
"m.	c #736B6B",
"n.	c #5A5252",
"o.	c #4B95E8",
"p.	c #036DFB",
"q.	c #036CFB",
"r.	c #818C61",
"s.	c #8C7C4A",
"t.	c #888548",
"u.	c #5C6A5C",
"v.	c #55534E",
"w.	c #5D5050",
"x.	c #516875",
"y.	c #0279FA",
"z.	c #2080DA",
"A.	c #4788B9",
"B.	c #658B9C",
"C.	c #3F97C1",
"D.	c #5B5F63",
"E.	c #6D6565",
"F.	c #675F5F",
"G.	c #585454",
"H.	c #5BA0E4",
"I.	c #046CF9",
"J.	c #076ACD",
"K.	c #0D7FA6",
"L.	c #169B6E",
"M.	c #29B732",
"N.	c #28D21A",
"O.	c #2CCF1D",
"P.	c #4E6049",
"Q.	c #797373",
"R.	c #54605B",
"S.	c #127CA4",
"T.	c #3085CE",
"U.	c #A99242",
"V.	c #BA5432",
"W.	c #8C8E7B",
"X.	c #32AAEC",
"Y.	c #5C727E",
"Z.	c #605757",
"`.	c #716B6B",
" +	c #575252",
".+	c #5A5858",
"++	c #5A5757",
"@+	c #67B0C0",
"#+	c #21B82A",
"$+	c #29D119",
"%+	c #28CB18",
"&+	c #27C317",
"*+	c #26BC16",
"=+	c #25B515",
"-+	c #4B6D43",
";+	c #6B6161",
">+	c #766F6F",
",+	c #514F4C",
"'+	c #2E8D3C",
")+	c #26C119",
"!+	c #15926E",
"~+	c #1573CF",
"{+	c #918A46",
"]+	c #ACA959",
"^+	c #ADA64C",
"/+	c #AA6436",
"(+	c #A17962",
"_+	c #028FFA",
":+	c #30AAF3",
"<+	c #5A90AC",
"[+	c #5A5557",
"}+	c #585353",
"|+	c #645B5B",
"1+	c #564B4B",
"2+	c #97BED1",
"3+	c #24B01D",
"4+	c #24A914",
"5+	c #23A213",
"6+	c #229B13",
"7+	c #219312",
"8+	c #3E7234",
"9+	c #56504C",
"0+	c #584E4E",
"a+	c #565555",
"b+	c #3E685E",
"c+	c #25B815",
"d+	c #30B42B",
"e+	c #7E7946",
"f+	c #79754C",
"g+	c #80804F",
"h+	c #AFAF67",
"i+	c #6F8977",
"j+	c #0A72A5",
"k+	c #1F813C",
"l+	c #0E8398",
"m+	c #31A2DE",
"n+	c #5C5F61",
"o+	c #524949",
"p+	c #746C6C",
"q+	c #5D5252",
"r+	c #1C873D",
"s+	c #1F8111",
"t+	c #1B7A2E",
"u+	c #1B7853",
"v+	c #2F746E",
"w+	c #515253",
"x+	c #615656",
"y+	c #5A595B",
"z+	c #5B5152",
"A+	c #526164",
"B+	c #248123",
"C+	c #27C319",
"D+	c #4B6449",
"E+	c #A2A571",
"F+	c #9FA96E",
"G+	c #187484",
"H+	c #2A8F1C",
"I+	c #2A931D",
"J+	c #207F32",
"K+	c #138CE0",
"L+	c #58575A",
"M+	c #858181",
"N+	c #5E5353",
"O+	c #595555",
"P+	c #6AA6BE",
"Q+	c #83B5CE",
"R+	c #5A5555",
"S+	c #6C6363",
"T+	c #5A5B5F",
"U+	c #1495E7",
"V+	c #4D7489",
"W+	c #6C6667",
"X+	c #696060",
"Y+	c #595A5D",
"Z+	c #2D6F45",
"`+	c #166E0D",
" @	c #3EAF3D",
".@	c #277EB5",
"+@	c #0E61A4",
"@@	c #375821",
"#@	c #2A921D",
"$@	c #19725C",
"%@	c #59626C",
"&@	c #584B4B",
"*@	c #565050",
"=@	c #5B5757",
"-@	c #6B6262",
";@	c #575051",
">@	c #2E7CC9",
",@	c #0189FA",
"'@	c #0194FA",
")@	c #2E88B9",
"!@	c #616164",
"~@	c #595051",
"{@	c #426560",
"]@	c #17570C",
"^@	c #209411",
"/@	c #1FAF37",
"(@	c #2D4D56",
"_@	c #0764D5",
":@	c #116983",
"<@	c #4A6573",
"[@	c #594E4E",
"}@	c #544A4A",
"|@	c #584D4D",
"1@	c #5E5151",
"2@	c #615858",
"3@	c #486C96",
"4@	c #0276FA",
"5@	c #0D97E7",
"6@	c #58676F",
"7@	c #6E6768",
"8@	c #625959",
"9@	c #515B5D",
"0@	c #247927",
"a@	c #21AF27",
"b@	c #0B7BAE",
"c@	c #2D6CBB",
"d@	c #52494A",
"e@	c #584C4C",
"f@	c #544E4E",
"g@	c #6E6565",
"h@	c #576474",
"i@	c #046DFA",
"j@	c #3B80B7",
"k@	c #997467",
"l@	c #B07357",
"m@	c #87837A",
"n@	c #4A7890",
"o@	c #666161",
"p@	c #575759",
"q@	c #32694C",
"r@	c #279D31",
"s@	c #59585C",
"t@	c #878383",
"u@	c #534444",
"v@	c #6D6464",
"w@	c #565B5C",
"x@	c #23A84A",
"y@	c #0A77C3",
"z@	c #2078DA",
"A@	c #AFAD48",
"B@	c #A98B5A",
"C@	c #C35332",
"D@	c #CD673C",
"E@	c #32A3E5",
"F@	c #4C95BE",
"G@	c #5E5F62",
"H@	c #5D5555",
"I@	c #466260",
"J@	c #536162",
"K@	c #6A6060",
"L@	c #5A4C4C",
"M@	c #564F4F",
"N@	c #625757",
"O@	c #595353",
"P@	c #367252",
"Q@	c #24A813",
"R@	c #24BF20",
"S@	c #149475",
"T@	c #8B8951",
"U@	c #91843D",
"V@	c #B9B343",
"W@	c #A7A067",
"X@	c #AB6135",
"Y@	c #0583CE",
"Z@	c #2E98CB",
"`@	c #5B6A73",
" #	c #504141",
".#	c #7A7474",
"+#	c #544C4C",
"@#	c #554E4E",
"##	c #646263",
"$#	c #386A51",
"%#	c #229A13",
"&#	c #26BE16",
"*#	c #3D9835",
"=#	c #797D51",
"-#	c #5C5C53",
";#	c #ABA95A",
">#	c #98AD67",
",#	c #11727F",
"'#	c #248B2F",
")#	c #22832B",
"!#	c #0B94DE",
"~#	c #537180",
"{#	c #8B8888",
"]#	c #534747",
"^#	c #554D4D",
"/#	c #5E5959",
"(#	c #675D5D",
"_#	c #655C5C",
":#	c #4B6160",
"<#	c #238818",
"[#	c #25AF14",
"}#	c #1C7A15",
"|#	c #688956",
"1#	c #ACB278",
"2#	c #186FC6",
"3#	c #2D7B20",
"4#	c #2C8E1C",
"5#	c #28881B",
"6#	c #1377A6",
"7#	c #58595E",
"8#	c #625B5B",
"9#	c #665B5B",
"0#	c #595F62",
"a#	c #2B7635",
"b#	c #1B7E0E",
"c#	c #1D8E11",
"d#	c #239E55",
"e#	c #0765E0",
"f#	c #2D4B43",
"g#	c #207229",
"h#	c #257E22",
"i#	c #54616F",
"j#	c #574A4A",
"k#	c #656060",
"l#	c #675E5E",
"m#	c #666263",
"n#	c #3A5A4C",
"o#	c #19670D",
"p#	c #25B615",
"q#	c #267A3D",
"r#	c #0D63C5",
"s#	c #046AEC",
"t#	c #426280",
"u#	c #4F4242",
"v#	c #8A8787",
"w#	c #5C5858",
"x#	c #625858",
"y#	c #665D5D",
"z#	c #4E5E5F",
"A#	c #248119",
"B#	c #1EA437",
"C#	c #256BAB",
"D#	c #564F51",
"E#	c #888484",
"F#	c #4D3F3F",
"G#	c #635A5A",
"H#	c #5E6164",
"I#	c #2E6E3A",
"J#	c #27921F",
"K#	c #5B4D4D",
"L#	c #615B5B",
"M#	c #656161",
"N#	c #575A5C",
"O#	c #524343",
"P#	c #564E4E",
"Q#	c #544747",
"R#	c #8C8989",
"S#	c #4F4444",
"T#	c #574E4E",
"U#	c #7B7575",
"V#	c #564C4C",
"W#	c #695F5F",
"X#	c #5B5858",
"                              . + @ #                           ",
"                  $ % & * = - ; > , '                           ",
"      ) ! ~ { ] ^ / ( _ : < [ } | 1 2                           ",
"  3 4 5 6 7 8 9 0 a b c d e f g h i j k                         ",
"  l m n o p q r s t t u v w x y z A B C                         ",
"  D E F G H w I J K L M N O P Q R S T U                         ",
"  V W X Y Z `  ...+.@.#.$.%.&.i *.=.-.;.>.,.                    ",
"    '.).!.~.{.].^./.(._.:.<.[.}.|.n 1.2.3.4.5.                  ",
"    6.7.8.9.9.0.a.b.c.d.e.f.g.h.Y i.p j.k.l.m.n.,.              ",
"    o.p.q.q.q.r.s.t.u.v.w.h x.8.~.y.z.A.B.C.D.E.F.G.            ",
"    H.I.J.K.L.M.N.O.P.h Q.R.S.q.9.T.U.V.t W.X.Y.Z.`. +  .+++    ",
"    @+#+$+%+&+*+=+-+;+>+,+'+)+!+~+{+]+^+/+(+_+:+<+[+;.}+|+1+++  ",
"    2+3+4+5+6+7+8+9+R 0+a+b+7+c+d+e+f+g+h+i+j+k+l+m+n+o+p+q+++  ",
"      r+s+t+u+v+w+x+E.y+f.z+A+B+4+C+D+E+F+G+H+I+J+K+L+M+N+O+    ",
"      P+Q+    R+S+Q.T+U+V+W+X+Y+Z+6+`+ @.@+@@@#@$@%@p+&@*@      ",
"            =@h -@;@>@,@'@)@!@f.~@{@]@^@/@(@_@:@<@[@;+}@        ",
"            |@1@2@3@4@X F o 5@6@7@8@9@0@5+a@b@c@d@M+e@++        ",
"          f@g@f.h@i@8.~.j@k@l@m@n@o@g@p@q@7+r@s@t@u@O+          ",
"        }+p+v@w@x@y@q.z@A@B@C@D@E@F@G@;.H@I@J@K@L@M@            ",
"      ++N@q+O@P@Q@R@S@T@U@V@W@X@F Y@Z@`@E.M@ #.#}@              ",
"      +#-@|+@###$#%#&#*#=#-#;#>#,#'#)#!#~#o+{#]#++              ",
"        ^#++/#(#_#:#<#[#}#|#1#2#3#4#5#6#7#Q.u@O+                ",
"              ++8#9#0#a#b#c#d#e#f#g#h#i#j#v@*@                  ",
"                  k#l#m#n#o#p#q#r#s#t#u#v#}@                    ",
"                    w#x#y#z#A#Q@B#C#D#E#F#++                    ",
"                      ,.G#(#H#I#J#w@;+K#O+                      ",
"                          L#(#M#N#O#.#@#                        ",
"                            R+P#Q#R#S#                          ",
"                              T#U# #++                          ",
"                            .+V#W#O+                            ",
"                                X#                              ",
"                                                                "};
